<svg width="892" height="892" viewBox="0 0 892 892" fill="none" xmlns="http://www.w3.org/2000/svg">
<circle cx="445.656" cy="445.645" r="421.5" fill="#F0AD4B" stroke="#5E350F" stroke-width="48"/>
<path d="M441.156 434.409L242.656 98.9092C83.8555 134.909 34.4889 348.909 29.6555 451.409H441.156L659.156 809.409L773.656 725.409L857.656 562.909V451.409L441.156 434.409Z" fill="#72892F"/>
<path d="M425.302 446.45L35.5001 450.606C-12.723 606.13 147.923 755.883 234.274 811.319L440.024 454.95L859.061 445.156L843.565 303.996L744.836 150L648.274 94.25L425.302 446.45Z" fill="#C75C28"/>
<path d="M849.593 446.396H42.093" stroke="#5E350F" stroke-width="48" stroke-linecap="square"/>
<path d="M647.718 796.053L243.968 96.7378" stroke="#5E350F" stroke-width="48" stroke-linecap="square"/>
<path d="M243.969 796.053L647.719 96.7377" stroke="#5E350F" stroke-width="48" stroke-linecap="square"/>
<circle cx="445.656" cy="445.645" r="421.5" stroke="#5E350F" stroke-width="48"/>
</svg>
